<svg xmlns="http://www.w3.org/2000/svg" width="190.1" height="179.631" viewBox="0 0 190.1 179.631">
  <path id="Tracé_32" data-name="Tracé 32" d="M751.437,472.51l-8.1-19.785c-.309-.776-.653-1.516-1-2.292a42.554,42.554,0,0,0-31.2-23.346l-41.4-7.264,44.282-8.534a37.058,37.058,0,0,0,26.054-19.009c.377-.7.721-1.41,1.031-2.151L751.4,367.1l12.392,24.545a31.075,31.075,0,0,0,3.056,4.8,38.115,38.115,0,0,0,21.762,13.789l39.725,9.593-42.608,10.65a34,34,0,0,0-19.189,14.177c-.412.635-.789,1.3-1.166,2.01l-14.006,25.85Z" transform="matrix(0.799, 0.602, -0.602, 0.799, -250.514, -696.238)" fill="#e73222" style="isolation: isolate"/>
</svg>
